# Wavefront Object File
# Generated using SpeedTree tools

mtllib TreeTrunk1.mtl

v -1.15431 0.367572 1.09321
v -1.1664 0.376967 0.00045852
v -1.29279 -0.733626 1.09361
v -2.0524 -0.530549 0.000858287
v -0.46146 -1.51994 1.09338
v -1.11699 -1.38203 0.000372933
v -0.134929 -1.67777 -0.000115699
v 0.722695 -1.14947 1.0926
v 0.978629 -1.35669 -0.000646802
v 0.751085 0.05316 1.09223
v 0.955562 -0.211526 -0.000595515
v -0.10886 0.719982 1.09251
v 0.681443 0.843139 -0.000425123
v -0.433749 1.13971 0.000128378
v -0.981061 0.226893 2.42445
v -1.22137 -0.704821 2.61255
v -0.429663 -1.31952 2.5505
v 0.44053 -0.922217 2.41547
v 0.67377 0.0246306 2.58891
v -0.125038 0.616372 2.52449
v -0.90389 0.222093 4.92958
v -1.05786 -0.622965 5.06689
v -0.371314 -1.1808 5.09688
v 0.426132 -0.848794 4.96641
v 0.584904 0.00569206 4.9299
v -0.100656 0.565466 4.92069
v -0.552032 0.644506 8.47716
v -0.751492 -0.121929 8.4464
v -0.15857 -0.620835 8.54472
v 0.554334 -0.235985 8.54782
v 0.739264 0.504291 8.17468
v 0.151828 1.0223 8.17079
v -0.0364246 1.57381 9.44756
v -0.552032 0.644506 8.47716
v 0.030041 1.04186 9.95582
v -0.0244859 0.804864 9.95974
v 0.586252 0.652474 9.9726
v 0.463066 0.41782 9.99454
v 1.17873 0.641096 9.56977
v 0.554334 -0.235985 8.54782
v 1.11226 1.17305 9.06152
v 0.739264 0.504291 8.17468
v 0.556053 1.56243 9.04474
v 0.151828 1.0223 8.17079
v 1.68118 3.62959 11.5341
v 1.85352 3.07303 12.0087
v 2.5069 3.01691 11.6417
v 2.36978 3.63253 11.2331
v 2.81707 5.39317 14.1615
v 2.78601 4.89534 14.0482
v 3.12013 4.91596 13.9682
v 3.12598 5.36084 14.0096
v 2.86791 5.44427 14.2534
v 2.83996 4.99622 14.1515
v 3.14066 5.01478 14.0795
v 3.14593 5.41517 14.1168
v -0.880013 0.529513 9.91394
v -0.552032 0.644506 8.47716
v -0.926309 -0.211843 9.87536
v -0.751492 -0.121929 8.4464
v -0.365886 -0.577904 9.95229
v -0.15857 -0.620835 8.54472
v 0.32386 -0.433827 10.0718
v 0.554334 -0.235985 8.54782
v 0.370155 0.307529 10.1104
v 0.463066 0.41782 9.99454
v -0.190267 0.67359 10.0334
v -0.0244859 0.804864 9.95974
v -1.17482 0.344816 13.281
v -1.11134 -0.394014 13.4338
v -0.361059 -0.301447 13.3918
v -0.426191 0.449787 13.3235
v -0.521095 1.25538 16.5864
v -0.531728 0.806719 16.3163
v -0.167711 0.908253 16.4678
v -0.181743 1.29548 16.5539
v -0.495875 1.25683 16.6368
v -0.505445 0.853034 16.3937
v -0.17783 0.944414 16.5301
v -0.190459 1.29292 16.6075
v -1.38713 -1.44737 0.0239921
v -1.29569 -0.166755 0.789535
v -0.645465 -1.1752 -0.562838
v -0.667478 0.149137 0.0912213
v 0.318481 -1.34432 -0.37149
v 0.217236 -0.0367933 0.148662
v 0.249554 -1.87701 0.6089
v 0.531795 -0.48131 0.793495
v 0.0897724 -0.801848 1.447
v -0.814886 -1.89379 0.76898
v -0.850233 -0.697546 1.53984
v -1.20031 -2.81349 -0.637378
v -0.619588 -2.46615 -1.27209
v 0.156898 -2.60279 -0.85646
v 0.073049 -2.9544 -0.130733
v -0.739603 -3.11542 0.0737727
v -0.834391 -3.67747 -1.00312
v -0.427087 -3.38875 -1.3174
v 0.123369 -3.37511 -1.10496
v 0.11948 -3.71032 -0.539462
v -0.516946 -3.8927 -0.503149
v 1.62336 -9.04014 -4.72635
v 1.19902 -0.864536 0.186401
v 0.0142625 -1.16677 0.839202
v 0.639628 -0.315942 -0.494971
v -0.455981 -0.871325 0.184246
v 0.506872 0.554147 -0.26846
v -0.796878 -0.0422604 0.0727457
v 0.909006 0.735988 0.523698
v -0.579213 0.517926 0.787691
v -0.054174 0.311187 1.59172
v 1.46395 -0.0764977 1.05889
v 0.233556 -0.635913 1.53969
v 3.39723 0.504896 -1.3748
v 3.03396 0.76625 -1.71093
v 3.13809 1.24427 -1.38148
v 3.48712 0.930731 -1.08485
v 5.24014 1.28104 -3.08178
v 5.03612 1.47742 -3.1576
v 5.23068 1.53799 -2.94546
v 6.61816 2.91589 -5.03291
v -0.677209 1.06741 0.147152
v 0.381835 0.480039 0.825667
v -0.77129 0.383921 -0.502092
v 0.346345 -0.21525 0.0979166
v -1.49971 -0.323249 -0.392622
v -0.253517 -0.864283 0.19493
v -1.94704 0.0312546 0.558262
v -0.775355 -0.965964 0.796242
v -0.812 -0.451521 1.42087
v -1.38317 0.873966 0.804325
v -0.309794 0.430768 1.71809
v -2.14839 2.22118 -1.21591
v -2.24942 1.81228 -1.60944
v -2.71989 1.45019 -1.59967
v -3.00842 1.67469 -1.06014
v -2.63722 2.13568 -0.858407
v -5.89389 7.04712 -4.79314
v 2.83996 4.99622 14.1515
v 3.08071 5.39008 14.3841
v 2.86791 5.44427 14.2534
v 3.14066 5.01478 14.0795
v 3.14593 5.41517 14.1168
v -0.505445 0.853034 16.3937
v -0.382418 0.987139 16.2435
v -0.495875 1.25683 16.6368
v -0.17783 0.944414 16.5301
v -0.190459 1.29292 16.6075
vn -0.771602 0.628525 0.0979095
vt -0.842402 0.359542
vn -0.71804 0.695863 0.0139241
vt -0.817812 0.236588
vn -0.904992 -0.332173 0.265801
vt -0.521371 0.359542
vn -0.822894 -0.0231433 0.567723
vt -0.557393 0.236588
vn -0.200706 -0.973057 0.113481
vt -0.178507 0.359542
vn -0.503417 -0.841581 0.195737
vt -0.294881 0.236588
vn 0.0120329 -0.989158 0.146362
vt -0.0675724 0.236588
vn 0.761554 -0.586804 0.275128
vt 0.176944 0.359542
vn 0.768408 -0.571395 0.288195
vt 0.196357 0.236588
vn 0.911914 0.405634 0.0622424
vt 0.52275 0.359542
vn 0.9796 0.132324 0.151243
vt 0.457415 0.236588
vn 0.160194 0.970245 0.181554
vt 0.846168 0.359542
vn 0.601929 0.618622 0.504963
vt 0.693591 0.236588
vn -0.223281 0.885826 0.406765
vt 0.947121 0.236588
vn -0.771602 0.628525 0.0979095
vt 1.1576 0.359542
vn -0.71804 0.695863 0.0139241
vt 1.18219 0.236588
vn -0.764999 0.639744 0.0741957
vt -0.875935 0.509107
vn -0.94159 -0.330452 0.0648763
vt -0.544492 0.529004
vn -0.119133 -0.989106 0.0864715
vt -0.209722 0.522309
vn 0.766901 -0.632644 0.107814
vt 0.12703 0.508561
vn 0.938676 0.341868 0.0448754
vt 0.46227 0.529341
vn 0.117328 0.992295 0.0398005
vt 0.794072 0.521777
vn -0.764999 0.639744 0.0741957
vt 1.12406 0.509107
vn -0.778034 0.628111 0.0118114
vt -0.93107 0.793251
vn -0.933553 -0.341368 0.109299
vt -0.597736 0.798953
vn -0.141333 -0.98255 0.120917
vt -0.264403 0.800127
vn 0.781205 -0.621839 0.0550885
vt 0.0689302 0.793251
vn 0.936752 0.347605 -0.0408331
vt 0.402264 0.798953
vn 0.143421 0.986586 -0.0779606
vt 0.735597 0.800127
vn -0.778034 0.628111 0.0118114
vt 1.06893 0.793251
vn -0.798838 0.600733 -0.0312799
vt -1.01283 1.19987
vn -0.947457 -0.317502 -0.0389468
vt -0.677998 1.20884
vn -0.112256 -0.991797 0.0611401
vt -0.372034 1.21577
vn 0.789154 -0.609263 0.0776768
vt -0.0328667 1.19887
vn 0.916233 0.205958 -0.343653
vt 0.32646 1.2092
vn 0.0445515 0.914581 -0.401941
vt 0.632511 1.21581
vn -0.798838 0.600733 -0.0312799
vt 0.98717 1.19987
vn -0.762196 0.643274 -0.072498
vt -1.04281 1.36159
vn -0.798838 0.600733 -0.0312799
vt -1.01283 1.19987
vn -0.698288 -0.0657387 0.712792
vt -0.709478 1.36159
vn -0.652607 0.524935 0.546395
vt -0.704162 1.33501
vn 0.0473248 -0.6193 0.783727
vt -0.376145 1.36159
vn 0.789787 -0.246388 0.56172
vt -0.370351 1.33262
vn 0.797169 -0.591212 0.122436
vt -0.0428118 1.36159
vn 0.789154 -0.609263 0.0776768
vt -0.0328667 1.19887
vn 0.766953 0.164941 -0.620144
vt 0.290522 1.36159
vn 0.916233 0.205958 -0.343653
vt 0.32646 1.2092
vn 0.0268488 0.732359 -0.680389
vt 0.623855 1.36159
vn 0.0445515 0.914581 -0.401941
vt 0.632511 1.21581
vn -0.762196 0.643274 -0.072498
vt 0.957188 1.36159
vn -0.798838 0.600733 -0.0312799
vt 0.98717 1.19987
vn -0.76534 0.641956 -0.0463372
vt -1.11789 1.73267
vn -0.455101 -0.481777 0.748849
vt -0.617886 1.73803
vn 0.8263 -0.539858 0.160565
vt -0.117885 1.73267
vn 0.492916 0.545172 -0.678101
vt 0.382114 1.73803
vn -0.76534 0.641956 -0.0463372
vt 0.882114 1.73267
vn -0.776493 0.626172 -0.0704765
vt -1.18209 2.10244
vn -0.495894 -0.521329 0.694482
vt -0.682089 2.05963
vn 0.82607 -0.52249 0.211217
vt -0.182089 2.0642
vn 0.552188 0.639371 -0.535063
vt 0.317911 2.09658
vn -0.776493 0.626172 -0.0704765
vt 0.817911 2.10244
vn -0.481742 0.423266 0.767314
vt -1.18209 2.11558
vn -0.170542 -0.454669 0.87418
vt -0.682089 2.07696
vn 0.67001 -0.432765 0.603159
vt -0.182089 2.0811
vn 0.858202 0.483934 0.171165
vt 0.317911 2.11028
vn -0.481742 0.423266 0.767314
vt 0.817911 2.11558
vn -0.76244 0.644353 -0.0591079
vt -1.04466 1.37081
vn -0.798838 0.600733 -0.0312799
vt -1.01283 1.19987
vn -0.900222 -0.421693 -0.108514
vt -0.711323 1.37081
vn -0.947457 -0.317502 -0.0389468
vt -0.677998 1.20884
vn -0.174122 -0.984713 -0.00462502
vt -0.37799 1.37081
vn -0.112256 -0.991797 0.0611401
vt -0.372034 1.21577
vn 0.749857 -0.647552 0.135614
vt -0.0446563 1.37081
vn 0.789154 -0.609263 0.0776768
vt -0.0328667 1.19887
vn 0.879424 0.416277 0.230924
vt 0.288677 1.37081
vn 0.789787 -0.246388 0.56172
vt 0.292828 1.35006
vn 0.154909 0.980368 0.121988
vt 0.62201 1.37081
vn -0.652607 0.524935 0.546395
vt 0.626974 1.34599
vn -0.76244 0.644353 -0.0591079
vt 0.955344 1.37081
vn -0.798838 0.600733 -0.0312799
vt 0.98717 1.19987
vn -0.77744 0.628636 -0.0201086
vt -1.1213 1.75092
vn -0.627352 -0.764848 0.146412
vt -0.621296 1.75573
vn 0.774092 -0.603551 0.191071
vt -0.121296 1.75092
vn 0.625395 0.778577 -0.0519505
vt 0.378704 1.75573
vn -0.77744 0.628636 -0.0201086
vt 0.878704 1.75092
vn -0.770106 0.637867 -0.00789225
vt -1.18734 2.14214
vn -0.590708 -0.693767 0.412008
vt -0.687337 2.09755
vn 0.79429 -0.577578 0.188436
vt -0.187337 2.12234
vn 0.615127 0.75504 -0.227011
vt 0.312663 2.14494
vn -0.770106 0.637867 -0.00789225
vt 0.812663 2.14214
vn 0.331151 -0.569198 0.752564
vt -1.18734 2.14849
vn 0.476972 0.20254 0.855263
vt -0.687337 2.10812
vn -0.658225 0.135977 0.74044
vt -0.187337 2.13052
vn -0.204703 -0.476098 0.855235
vt 0.312663 2.15106
vn 0.331151 -0.569198 0.752564
vt 0.812663 2.14849
vn -0.895455 -0.334098 -0.294175
vt -0.0188914 0.511887
vn -0.900204 -0.31683 -0.298749
vt 0.012772 0.35357
vn -0.227834 0.0367716 -0.973005
vt 0.181109 0.511887
vn -0.384181 -0.068047 -0.920747
vt 0.170445 0.35357
vn 0.718778 -0.196693 -0.666837
vt 0.381109 0.511887
vn 0.448764 -0.131039 -0.883991
vt 0.328118 0.35357
vn 0.634069 -0.719433 0.2835
vt 0.581109 0.511887
vn 0.766923 -0.58299 -0.268239
vt 0.485791 0.35357
vn 0.339454 -0.860812 0.379176
vt 0.657815 0.35357
vn -0.380205 -0.787083 0.485741
vt 0.781109 0.511887
vn -0.518942 -0.787234 0.333109
vt 0.841039 0.35357
vn -0.895455 -0.334098 -0.294175
vt 0.981109 0.511887
vn -0.900204 -0.31683 -0.298749
vt 1.01277 0.35357
vn -0.848129 -0.443608 -0.289636
vt -0.0505465 0.670162
vn -0.154958 -0.0286406 -0.987506
vt 0.149454 0.670162
vn 0.793022 -0.210967 -0.571498
vt 0.349454 0.670162
vn 0.701037 -0.634174 0.326143
vt 0.549454 0.670162
vn -0.303003 -0.782542 0.543891
vt 0.749453 0.670162
vn -0.848129 -0.443608 -0.289636
vt 0.949454 0.670162
vn -0.790112 -0.467461 -0.396488
vt -0.0706006 0.770433
vn -0.126803 0.133578 -0.982893
vt 0.129399 0.770433
vn 0.835361 0.161955 -0.525302
vt 0.329399 0.770433
vn 0.788271 -0.46966 0.397553
vt 0.529399 0.770433
vn -0.242232 -0.855963 0.456783
vt 0.729399 0.770433
vn -0.790112 -0.467461 -0.396488
vt 0.929399 0.770433
vn -0.972447 -0.132537 -0.191786
vt 0.106887 1.54966
vn -0.972447 -0.132537 -0.191786
vt 0.44022 1.54966
vn -0.972447 -0.132537 -0.191786
vt 0.773553 1.54966
vn 0.676669 -0.687176 -0.264402
vt -0.806177 -0.386856
vn 0.664033 -0.716621 -0.213341
vt -0.837843 -0.545186
vn 0.0834188 -0.253036 -0.963854
vt -0.606177 -0.386856
vn 0.276817 -0.396828 -0.875157
vt -0.681553 -0.545186
vn -0.0584849 0.701351 -0.710413
vt -0.406177 -0.386856
vn 0.0801462 0.403097 -0.911641
vt -0.525263 -0.545186
vn 0.395075 0.909532 0.129103
vt -0.206177 -0.386856
vn 0.249396 0.909166 -0.333494
vt -0.368973 -0.545186
vn 0.690849 0.667572 0.277625
vt -0.198055 -0.545186
vn 0.881277 0.069429 0.467473
vt -0.00617719 -0.386856
vn 0.863254 -0.196715 0.46486
vt -0.0124778 -0.545186
vn 0.676669 -0.687176 -0.264402
vt 0.193823 -0.386856
vn 0.664033 -0.716621 -0.213341
vt 0.162157 -0.545186
vn 0.582201 -0.78703 -0.204024
vt -0.740024 -0.0560879
vn -0.247342 -0.0992239 -0.963834
vt -0.490024 -0.0560879
vn -0.0426563 0.975736 -0.214755
vt -0.240024 -0.0560879
vn 0.80016 0.281439 0.529656
vt 0.00997633 -0.0560879
vn 0.582201 -0.78703 -0.204024
vt 0.259976 -0.0560879
vn 0.524679 -0.814144 -0.24876
vt -0.681534 0.236359
vn -0.654653 0.335335 -0.677481
vt -0.348201 0.236359
vn 0.461431 0.693203 0.553671
vt -0.0148677 0.236359
vn 0.524679 -0.814144 -0.24876
vt 0.318466 0.236359
vn 0.403494 -0.904053 -0.140999
vt -0.283815 0.558286
vn 0.403494 -0.904053 -0.140999
vt 0.0495179 0.558286
vn 0.403494 -0.904053 -0.140999
vt 0.382851 0.558286
vn 0.262717 0.932478 -0.247922
vt 0.0602469 -0.232605
vn 0.121836 0.937954 -0.324652
vt 0.0919364 -0.391052
vn 0.233986 0.234225 -0.943605
vt 0.260247 -0.232605
vn 0.114087 0.377282 -0.919044
vt 0.248921 -0.391052
vn -0.508471 -0.435304 -0.742945
vt 0.460247 -0.232605
vn -0.31891 -0.344744 -0.882864
vt 0.405905 -0.391052
vn -0.985093 -0.0714313 0.15649
vt 0.660247 -0.232605
vn -0.882259 -0.383721 -0.272722
vt 0.562889 -0.391052
vn -0.92213 0.0545783 0.38301
vt 0.734232 -0.391052
vn -0.493976 0.783041 0.377935
vt 0.860247 -0.232605
vn -0.498817 0.819508 0.282114
vt 0.918629 -0.391052
vn 0.262717 0.932478 -0.247922
vt 1.06025 -0.232605
vn 0.121836 0.937954 -0.324652
vt 1.09194 -0.391052
vn 0.527396 0.84574 -0.0811038
vt 0.00632038 0.0370281
vn 0.418585 0.156872 -0.894526
vt 0.20632 0.0370281
vn -0.493296 -0.382861 -0.781074
vt 0.40632 0.0370281
vn -0.986234 -0.0333796 0.161949
vt 0.60632 0.0370281
vn -0.343514 0.729656 0.59127
vt 0.80632 0.0370281
vn 0.527396 0.84574 -0.0811038
vt 1.00632 0.0370281
vn 0.742157 0.663482 0.094836
vt 0.179499 0.837803
vn 0.742157 0.663482 0.094836
vt 0.512832 0.837803
vn 0.742157 0.663482 0.094836
vt 0.846165 0.837803
vn -0.131983 -0.44299 0.886759
vt 0.5 1
vn 0.600471 -0.182109 0.778634
vt 0.5 0.5
vn -0.415099 0.371965 0.830262
vt 1 0.5
vn 0.644192 -0.417359 0.640958
vt 0 0.5
vn 0.859893 0.444221 0.251497
vt 0.5 0
vn 0.570365 0.322697 0.755347
vt 0.0383675 0.692082
vn -0.263558 -0.0112885 0.964577
vt 0.5 0.5
vn 0.498893 -0.640877 0.583423
vt 0.692082 0.961633
vn -0.766086 0.263573 0.58621
vt 0.307918 0.0383674
vn -0.36322 -0.61021 0.70407
vt 0.961632 0.307918
g TreeTrunk1
usemtl Default
s 1

f 1/1/1 2/2/2 3/3/3 
f 4/4/4 3/3/3 2/2/2 
f 3/3/3 4/4/4 5/5/5 
f 6/6/6 5/5/5 4/4/4 
f 7/7/7 5/5/5 6/6/6 
f 5/5/5 7/7/7 8/8/8 
f 9/9/9 8/8/8 7/7/7 
f 8/8/8 9/9/9 10/10/10 
f 11/11/11 10/10/10 9/9/9 
f 10/10/10 11/11/11 12/12/12 
f 13/13/13 12/12/12 11/11/11 
f 14/14/14 12/12/12 13/13/13 
f 12/12/12 14/14/14 1/15/15 
f 2/16/16 1/15/15 14/14/14 
f 15/17/17 1/1/1 16/18/18 
f 3/3/3 16/18/18 1/1/1 
f 16/18/18 3/3/3 17/19/19 
f 5/5/5 17/19/19 3/3/3 
f 17/19/19 5/5/5 18/20/20 
f 8/8/8 18/20/20 5/5/5 
f 18/20/20 8/8/8 19/21/21 
f 10/10/10 19/21/21 8/8/8 
f 19/21/21 10/10/10 20/22/22 
f 12/12/12 20/22/22 10/10/10 
f 20/22/22 12/12/12 15/23/23 
f 1/15/15 15/23/23 12/12/12 
f 21/24/24 15/17/17 22/25/25 
f 16/18/18 22/25/25 15/17/17 
f 22/25/25 16/18/18 23/26/26 
f 17/19/19 23/26/26 16/18/18 
f 23/26/26 17/19/19 24/27/27 
f 18/20/20 24/27/27 17/19/19 
f 24/27/27 18/20/20 25/28/28 
f 19/21/21 25/28/28 18/20/20 
f 25/28/28 19/21/21 26/29/29 
f 20/22/22 26/29/29 19/21/21 
f 26/29/29 20/22/22 21/30/30 
f 15/23/23 21/30/30 20/22/22 
f 27/31/31 21/24/24 28/32/32 
f 22/25/25 28/32/32 21/24/24 
f 28/32/32 22/25/25 29/33/33 
f 23/26/26 29/33/33 22/25/25 
f 29/33/33 23/26/26 30/34/34 
f 24/27/27 30/34/34 23/26/26 
f 30/34/34 24/27/27 31/35/35 
f 25/28/28 31/35/35 24/27/27 
f 31/35/35 25/28/28 32/36/36 
f 26/29/29 32/36/36 25/28/28 
f 32/36/36 26/29/29 27/37/37 
f 21/30/30 27/37/37 26/29/29 
f 33/38/38 34/39/39 35/40/40 
f 36/41/41 35/40/40 34/39/39 
f 35/40/40 36/41/41 37/42/42 
f 38/43/43 37/42/42 36/41/41 
f 37/42/42 38/43/43 39/44/44 
f 40/45/45 39/44/44 38/43/43 
f 39/44/44 40/45/45 41/46/46 
f 42/47/47 41/46/46 40/45/45 
f 41/46/46 42/47/47 43/48/48 
f 44/49/49 43/48/48 42/47/47 
f 43/48/48 44/49/49 33/50/50 
f 34/51/51 33/50/50 44/49/49 
f 45/52/52 33/38/38 46/53/53 
f 35/40/40 46/53/53 33/38/38 
f 37/42/42 46/53/53 35/40/40 
f 46/53/53 37/42/42 47/54/54 
f 39/44/44 47/54/54 37/42/42 
f 47/54/54 39/44/44 48/55/55 
f 41/46/46 48/55/55 39/44/44 
f 43/48/48 48/55/55 41/46/46 
f 48/55/55 43/48/48 45/56/56 
f 33/50/50 45/56/56 43/48/48 
f 49/57/57 45/52/52 50/58/58 
f 46/53/53 50/58/58 45/52/52 
f 50/58/58 46/53/53 51/59/59 
f 47/54/54 51/59/59 46/53/53 
f 51/59/59 47/54/54 52/60/60 
f 48/55/55 52/60/60 47/54/54 
f 52/60/60 48/55/55 49/61/61 
f 45/56/56 49/61/61 48/55/55 
f 53/62/62 49/57/57 54/63/63 
f 50/58/58 54/63/63 49/57/57 
f 54/63/63 50/58/58 55/64/64 
f 51/59/59 55/64/64 50/58/58 
f 55/64/64 51/59/59 56/65/65 
f 52/60/60 56/65/65 51/59/59 
f 56/65/65 52/60/60 53/66/66 
f 49/61/61 53/66/66 52/60/60 
f 57/67/67 58/68/68 59/69/69 
f 60/70/70 59/69/69 58/68/68 
f 59/69/69 60/70/70 61/71/71 
f 62/72/72 61/71/71 60/70/70 
f 61/71/71 62/72/72 63/73/73 
f 64/74/74 63/73/73 62/72/72 
f 63/73/73 64/74/74 65/75/75 
f 66/76/76 65/75/75 64/74/74 
f 65/75/75 66/76/76 67/77/77 
f 68/78/78 67/77/77 66/76/76 
f 67/77/77 68/78/78 57/79/79 
f 58/80/80 57/79/79 68/78/78 
f 69/81/81 57/67/67 70/82/82 
f 59/69/69 70/82/82 57/67/67 
f 61/71/71 70/82/82 59/69/69 
f 70/82/82 61/71/71 71/83/83 
f 63/73/73 71/83/83 61/71/71 
f 71/83/83 63/73/73 72/84/84 
f 65/75/75 72/84/84 63/73/73 
f 67/77/77 72/84/84 65/75/75 
f 72/84/84 67/77/77 69/85/85 
f 57/79/79 69/85/85 67/77/77 
f 73/86/86 69/81/81 74/87/87 
f 70/82/82 74/87/87 69/81/81 
f 74/87/87 70/82/82 75/88/88 
f 71/83/83 75/88/88 70/82/82 
f 75/88/88 71/83/83 76/89/89 
f 72/84/84 76/89/89 71/83/83 
f 76/89/89 72/84/84 73/90/90 
f 69/85/85 73/90/90 72/84/84 
f 77/91/91 73/86/86 78/92/92 
f 74/87/87 78/92/92 73/86/86 
f 78/92/92 74/87/87 79/93/93 
f 75/88/88 79/93/93 74/87/87 
f 79/93/93 75/88/88 80/94/94 
f 76/89/89 80/94/94 75/88/88 
f 80/94/94 76/89/89 77/95/95 
f 73/90/90 77/95/95 76/89/89 
f 81/96/96 82/97/97 83/98/98 
f 84/99/99 83/98/98 82/97/97 
f 83/98/98 84/99/99 85/100/100 
f 86/101/101 85/100/100 84/99/99 
f 85/100/100 86/101/101 87/102/102 
f 88/103/103 87/102/102 86/101/101 
f 89/104/104 87/102/102 88/103/103 
f 87/102/102 89/104/104 90/105/105 
f 91/106/106 90/105/105 89/104/104 
f 90/105/105 91/106/106 81/107/107 
f 82/108/108 81/107/107 91/106/106 
f 92/109/109 81/96/96 93/110/110 
f 83/98/98 93/110/110 81/96/96 
f 93/110/110 83/98/98 94/111/111 
f 85/100/100 94/111/111 83/98/98 
f 94/111/111 85/100/100 95/112/112 
f 87/102/102 95/112/112 85/100/100 
f 95/112/112 87/102/102 96/113/113 
f 90/105/105 96/113/113 87/102/102 
f 96/113/113 90/105/105 92/114/114 
f 81/107/107 92/114/114 90/105/105 
f 97/115/115 92/109/109 98/116/116 
f 93/110/110 98/116/116 92/109/109 
f 98/116/116 93/110/110 99/117/117 
f 94/111/111 99/117/117 93/110/110 
f 99/117/117 94/111/111 100/118/118 
f 95/112/112 100/118/118 94/111/111 
f 100/118/118 95/112/112 101/119/119 
f 96/113/113 101/119/119 95/112/112 
f 101/119/119 96/113/113 97/120/120 
f 92/114/114 97/120/120 96/113/113 
f 98/116/116 102/121/121 97/115/115 
f 99/117/117 102/121/121 98/116/116 
f 100/118/118 102/122/122 99/117/117 
f 101/119/119 102/122/122 100/118/118 
f 97/120/120 102/123/123 101/119/119 
f 103/124/124 104/125/125 105/126/126 
f 106/127/127 105/126/126 104/125/125 
f 105/126/126 106/127/127 107/128/128 
f 108/129/129 107/128/128 106/127/127 
f 107/128/128 108/129/129 109/130/130 
f 110/131/131 109/130/130 108/129/129 
f 111/132/132 109/130/130 110/131/131 
f 109/130/130 111/132/132 112/133/133 
f 113/134/134 112/133/133 111/132/132 
f 112/133/133 113/134/134 103/135/135 
f 104/136/136 103/135/135 113/134/134 
f 114/137/137 103/124/124 115/138/138 
f 105/126/126 115/138/138 103/124/124 
f 115/138/138 105/126/126 116/139/139 
f 107/128/128 116/139/139 105/126/126 
f 109/130/130 116/139/139 107/128/128 
f 116/139/139 109/130/130 117/140/140 
f 112/133/133 117/140/140 109/130/130 
f 117/140/140 112/133/133 114/141/141 
f 103/135/135 114/141/141 112/133/133 
f 118/142/142 114/137/137 119/143/143 
f 115/138/138 119/143/143 114/137/137 
f 119/143/143 115/138/138 120/144/144 
f 116/139/139 120/144/144 115/138/138 
f 117/140/140 120/144/144 116/139/139 
f 120/144/144 117/140/140 118/145/145 
f 114/141/141 118/145/145 117/140/140 
f 119/143/143 121/146/146 118/142/142 
f 120/144/144 121/147/147 119/143/143 
f 118/145/145 121/148/148 120/144/144 
f 122/149/149 123/150/150 124/151/151 
f 125/152/152 124/151/151 123/150/150 
f 124/151/151 125/152/152 126/153/153 
f 127/154/154 126/153/153 125/152/152 
f 126/153/153 127/154/154 128/155/155 
f 129/156/156 128/155/155 127/154/154 
f 130/157/157 128/155/155 129/156/156 
f 128/155/155 130/157/157 131/158/158 
f 132/159/159 131/158/158 130/157/157 
f 131/158/158 132/159/159 122/160/160 
f 123/161/161 122/160/160 132/159/159 
f 133/162/162 122/149/149 134/163/163 
f 124/151/151 134/163/163 122/149/149 
f 134/163/163 124/151/151 135/164/164 
f 126/153/153 135/164/164 124/151/151 
f 135/164/164 126/153/153 136/165/165 
f 128/155/155 136/165/165 126/153/153 
f 136/165/165 128/155/155 137/166/166 
f 131/158/158 137/166/166 128/155/155 
f 137/166/166 131/158/158 133/167/167 
f 122/160/160 133/167/167 131/158/158 
f 134/163/163 138/168/168 133/162/162 
f 135/164/164 138/168/168 134/163/163 
f 136/165/165 138/169/169 135/164/164 
f 137/166/166 138/169/169 136/165/165 
f 133/167/167 138/170/170 137/166/166 
f 139/171/171 140/172/172 141/173/173 
f 142/174/174 140/172/172 139/171/171 
f 143/175/175 140/172/172 142/174/174 
f 141/173/173 140/172/172 143/175/175 
f 144/176/176 145/177/177 146/178/178 
f 147/179/179 145/177/177 144/176/176 
f 148/180/180 145/177/177 147/179/179 
f 146/178/178 145/177/177 148/180/180 



