# Wavefront Object File
# Generated using SpeedTree tools

mtllib TreeTrunk2.mtl

v -1.01914 0.257071 2.75586
v -1.19843 0.402853 -0.00360027
v -1.17516 -0.917824 2.76835
v -1.69993 -0.890125 -0.00267133
v -0.0223368 -1.30969 2.80101
v -0.535919 -1.98968 0.00214464
v 0.710039 -0.388474 2.80564
v 1.03944 -1.40584 0.00513969
v 1.16921 0.214353 0.00271345
v 0.0907385 0.640291 2.77683
v -0.0860937 0.867845 -0.00157522
v -1.13061 0.305591 8.17883
v -1.14966 -0.686335 8.1898
v -0.250623 -1.07082 8.4203
v 0.38323 -0.270175 8.40835
v -0.16628 0.531332 8.21239
v -2.19949 0.955516 14.341
v -2.12568 0.0347028 14.5199
v -1.23812 0.162985 14.8048
v -1.31331 1.08445 14.6298
v -4.97734 1.94987 20.585
v -4.83023 1.54355 20.3783
v -4.50314 1.61424 20.5036
v -4.66418 2.0262 20.7378
v -5.01322 1.9572 20.6986
v -4.88082 1.59151 20.5125
v -4.58644 1.65513 20.6253
v -4.73137 2.0259 20.8361
v -1.35717 0.59318 7.81416
v -1.02436 0.333161 7.61234
v -1.13552 0.785464 7.08418
v -0.555663 0.455118 6.53222
v -1.59089 0.259362 7.10916
v -1.10693 -0.240294 6.53667
v -1.67632 0.937749 8.07731
v -1.61085 1.28499 7.48405
v -2.00571 0.729793 7.47969
v -3.25739 2.76916 9.1254
v -3.23663 2.99969 8.79835
v -3.59058 2.79723 8.8785
v -4.60226 5.20426 10.3738
v -1.12427 -0.840587 11.0146
v -0.987355 -0.45113 10.7231
v -1.44542 -0.946702 10.5833
v -1.32881 -0.459927 10.0765
v -1.06577 -1.1712 10.2506
v -0.819372 -0.675465 9.51879
v -0.754072 -1.08834 10.7294
v -0.505841 -0.66662 10.2893
v -1.22562 -1.13926 11.4064
v -1.58493 -1.36952 11.1444
v -1.24495 -1.68464 10.9568
v -0.874546 -1.3969 11.1368
v -1.38903 -1.8091 12.2909
v -1.68049 -1.99945 12.0995
v -1.44482 -2.39438 12.1283
v -1.1156 -2.10571 12.2115
v -1.33593 -2.29601 13.0573
v -1.38903 -1.8091 12.2909
v -1.53591 -2.51731 13.046
v -1.45216 -2.59259 12.9953
v -1.34411 -2.68779 12.8981
v -1.44482 -2.39438 12.1283
v -1.15357 -2.47067 12.9115
v -1.1156 -2.10571 12.2115
v 0.133435 -3.68424 16.0547
v -1.52793 -2.31271 13.0624
v -1.38903 -1.8091 12.2909
v -1.75122 -2.46452 12.9374
v -1.68049 -1.99945 12.0995
v -1.57485 -2.69768 12.8959
v -1.44482 -2.39438 12.1283
v -1.36133 -2.54682 13.0177
v -1.45216 -2.59259 12.9953
v -2.58264 -3.68809 16.2317
v 0.496987 0.249638 8.40781
v 0.139973 0.0925168 8.19584
v 0.918546 0.0169323 7.7535
v 0.44185 -0.280239 7.22536
v 0.498788 0.625206 7.68388
v -0.0732832 0.481759 7.15031
v 0.696737 0.410259 8.63962
v 1.33821 0.37407 8.30081
v 0.912585 0.957213 8.21586
v 2.13879 1.84515 10.5416
v 2.48947 1.79757 10.2932
v 2.2491 2.15138 10.2525
v 3.65968 3.40789 12.6262
v -2.38387 1.80572 17.742
v -2.32796 0.917233 16.6361
v -2.39849 2.17588 17.4781
v -2.33775 1.30462 16.1835
v -2.78138 1.97017 17.605
v -2.81535 1.39136 16.8264
v -2.74793 3.37004 19.9403
v -2.75229 3.57851 19.7625
v -2.99898 3.47366 19.8681
v -2.78192 3.46075 20.0568
v -2.78585 3.64837 19.8967
v -3.00787 3.55401 19.9917
v -3.182 0.225738 16.555
v -1.68322 0.574888 15.3752
v -3.50213 0.583206 16.2966
v -2.11426 1.05482 15.0283
v -3.50901 0.060567 16.1543
v -2.11748 0.342012 14.814
v -7.45801 -0.143196 20.3853
v -4.88082 1.59151 20.5125
v -4.93614 1.86131 20.9311
v -5.01322 1.9572 20.6986
v -4.58644 1.65513 20.6253
v -4.73137 2.0259 20.8361
v -2.78585 3.64837 19.8967
v -2.93404 3.79726 20.359
v -2.78192 3.46075 20.0568
v -3.00787 3.55401 19.9917
vn -0.776094 0.630464 0.013926
vt -0.880394 0.549502
vn -0.734127 0.673883 0.0832992
vt -0.817812 0.236588
vn -0.842566 -0.534042 0.0698773
vt -0.480393 0.549502
vn -0.948622 -0.262255 0.177027
vt -0.513297 0.236588
vn 0.267346 -0.958847 0.095599
vt -0.0804014 0.549502
vn -0.179212 -0.947952 0.263191
vt -0.156652 0.236588
vn 0.99436 -0.0565484 0.0897198
vt 0.319611 0.549502
vn 0.754282 -0.583623 0.300738
vt 0.228285 0.236588
vn 0.870722 0.431725 0.235493
vt 0.591885 0.236588
vn 0.348387 0.93642 0.0417646
vt 0.719613 0.549502
vn 0.0789296 0.99395 0.0763819
vt 0.902058 0.236588
vn -0.776094 0.630464 0.013926
vt 1.11961 0.549502
vn -0.734127 0.673883 0.0832992
vt 1.18219 0.236588
vn -0.771642 0.625331 -0.116319
vt -1.00551 1.17082
vn -0.840358 -0.541497 -0.0240812
vt -0.605508 1.16389
vn 0.240416 -0.960205 0.142152
vt -0.205508 1.17408
vn 0.986376 -0.03096 0.161569
vt 0.194492 1.17093
vn 0.354559 0.935008 0.00696266
vt 0.594492 1.16337
vn -0.771642 0.625331 -0.116319
vt 0.994492 1.17082
vn -0.738009 0.60286 -0.303153
vt -1.15006 1.89581
vn -0.622524 -0.781322 -0.0447323
vt -0.650064 1.89605
vn 0.712123 -0.590796 0.379264
vt -0.150064 1.89581
vn 0.596745 0.793549 0.119055
vt 0.349936 1.89605
vn -0.738009 0.60286 -0.303153
vt 0.849936 1.89581
vn -0.703572 0.585939 -0.402072
vt -1.29827 2.68044
vn -0.613677 -0.785431 -0.0806138
vt -0.798271 2.64446
vn 0.646716 -0.56298 0.514599
vt -0.298271 2.6419
vn 0.560124 0.807158 0.186433
vt 0.201729 2.68141
vn -0.703572 0.585939 -0.402072
vt 0.701729 2.68044
vn -0.95402 0.133552 0.268347
vt -1.29827 2.69387
vn -0.491239 -0.781089 0.385466
vt -0.798271 2.66148
vn 0.305516 -0.631517 0.712634
vt -0.298271 2.65912
vn 0.33932 0.267963 0.901697
vt 0.201729 2.69481
vn -0.95402 0.133552 0.268347
vt 0.701729 2.69387
vn -0.222628 0.264901 0.938224
vt 0.997003 -0.429015
vn -0.71588 0.690105 -0.10617
vt 1.01354 -0.511704
vn -0.141412 0.984278 -0.105828
vt 1.33942 -0.429015
vn -0.239498 0.969496 -0.0521357
vt 1.37302 -0.511704
vn -0.998467 -0.0485475 -0.0266013
vt 1.64333 -0.429015
vn -0.999427 0.00258827 -0.0337519
vt 1.64251 -0.511704
vn -0.222628 0.264901 0.938224
vt 1.997 -0.429015
vn -0.71588 0.690105 -0.10617
vt 2.01354 -0.511704
vn -0.0965538 0.211156 0.972672
vt 0.980838 -0.339606
vn 0.0536011 0.977684 -0.203127
vt 1.31417 -0.350706
vn -0.994311 -0.0641587 -0.0850222
vt 1.64751 -0.365652
vn -0.0965538 0.211156 0.972672
vt 1.98084 -0.339606
vn 0.207147 -0.0620177 0.976342
vt 0.919016 -0.0442019
vn 0.314203 0.861749 -0.398327
vt 1.25235 -0.0435551
vn -0.969692 -0.164887 -0.180302
vt 1.58568 -0.0364581
vn 0.207147 -0.0620177 0.976342
vt 1.91902 -0.0442019
vn 0.781249 0.609552 -0.134527
vt 1.18484 0.298487
vn 0.781249 0.609552 -0.134527
vt 1.51817 0.298487
vn 0.781249 0.609552 -0.134527
vt 1.8515 0.298487
vn -0.115766 0.103049 0.987917
vt -0.576822 -0.321542
vn -0.0335732 -0.969345 0.243398
vt -0.592391 -0.399385
vn -0.936924 -0.297896 0.182841
vt -0.327769 -0.321542
vn -0.722925 -0.690498 0.0243286
vt -0.351193 -0.399385
vn -0.151441 -0.982975 -0.10405
vt -0.0776537 -0.321542
vn -0.180381 -0.970879 0.15766
vt -0.0920805 -0.399385
vn 0.664377 -0.604895 0.438982
vt 0.183243 -0.321542
vn 0.450263 -0.863095 0.228757
vt 0.182323 -0.399385
vn -0.115766 0.103049 0.987917
vt 0.423178 -0.321542
vn -0.0335734 -0.969345 0.243398
vt 0.407609 -0.399385
vn -0.0373691 0.365279 0.930148
vt -0.561431 -0.242857
vn -0.950829 -0.220948 0.217041
vt -0.311431 -0.243394
vn -0.111518 -0.984648 -0.134284
vt -0.0614313 -0.246919
vn 0.784846 -0.453894 0.421897
vt 0.188569 -0.257673
vn -0.0373691 0.365279 0.930148
vt 0.438569 -0.242857
vn -0.00356321 0.620175 0.784456
vt -0.533587 -0.113996
vn -0.976678 -0.0606927 0.205954
vt -0.287419 -0.114389
vn -0.0185872 -0.981554 -0.190281
vt -0.0373929 -0.0943077
vn 0.923638 -0.243761 0.29576
vt 0.216753 -0.105598
vn -0.00356321 0.620175 0.784456
vt 0.466413 -0.113996
vn 0.11794 0.766634 0.63116
vt -0.510431 0.0104138
vn -0.00356321 0.620175 0.784456
vt -0.533587 -0.113996
vn -0.785195 -0.250268 0.566423
vt -0.260431 0.0104138
vn -0.149053 0.344891 -0.926733
vt -0.263735 -0.00610518
vn 0.0677565 -0.992053 -0.106018
vt -0.0104313 0.0104138
vn -0.0185872 -0.981554 -0.190281
vt -0.0373929 -0.0943077
vn 0.997452 -0.0413909 -0.0581143
vt 0.239569 0.0104138
vn 0.923638 -0.243761 0.29576
vt 0.216753 -0.105598
vn 0.11794 0.766634 0.63116
vt 0.489569 0.0104138
vn -0.00356321 0.620175 0.784456
vt 0.466413 -0.113996
vn -0.937177 -0.114323 0.329589
vt -0.0814343 0.488732
vn -0.937177 -0.114323 0.329589
vt 0.251899 0.488732
vn -0.937177 -0.114323 0.329589
vt 0.585232 0.488732
vn 0.0333569 0.75337 0.65675
vt -0.510039 0.0123768
vn -0.00356321 0.620175 0.784456
vt -0.533587 -0.113996
vn -0.996665 0.0550496 0.0602363
vt -0.260039 0.0123768
vn -0.976678 -0.0606927 0.205954
vt -0.287419 -0.114389
vn -0.179859 -0.976908 -0.115332
vt -0.0100386 0.0123768
vn -0.0185872 -0.981554 -0.190281
vt -0.0373929 -0.0943077
vn 0.83427 -0.332324 0.439948
vt 0.239961 0.0123768
vn -0.149053 0.344891 -0.926733
vt 0.23719 -0.00147977
vn 0.0333569 0.75337 0.65675
vt 0.489961 0.0123768
vn -0.00356321 0.620175 0.784456
vt 0.466413 -0.113996
vn -0.959127 0.202439 -0.197723
vt -0.08111 0.490353
vn -0.959127 0.202439 -0.197723
vt 0.252223 0.490353
vn -0.959127 0.202439 -0.197723
vt 0.585557 0.490353
vn 0.105389 0.0973475 0.989655
vt 0.0943995 0.183983
vn 0.857895 0.501925 0.109941
vt 0.109264 0.10966
vn 0.968409 -0.228986 0.0987427
vt 0.437494 0.183983
vn 0.989186 -0.0187062 0.145469
vt 0.453889 0.10966
vn 0.300448 0.953547 0.0218803
vt 0.751088 0.183983
vn 0.417078 0.908694 0.0179051
vt 0.747673 0.10966
vn 0.105389 0.0973475 0.989655
vt 1.0944 0.183983
vn 0.857895 0.501925 0.109941
vt 1.10926 0.10966
vn -0.177805 -0.00069288 0.984065
vt 0.0801032 0.247949
vn 0.972461 -0.18103 0.146791
vt 0.413437 0.256984
vn 0.124803 0.991324 -0.0412417
vt 0.74677 0.255973
vn -0.177805 -0.000692916 0.984065
vt 1.0801 0.247949
vn -0.478064 -0.211625 0.852449
vt 0.0183635 0.562727
vn 0.944064 -0.329619 0.00971641
vt 0.351697 0.557863
vn -0.043046 0.972421 -0.229225
vt 0.68503 0.56147
vn -0.478064 -0.211625 0.852449
vt 1.01836 0.562727
vn 0.600196 -0.786489 0.145598
vt 0.284242 0.901438
vn 0.600196 -0.786489 0.145598
vt 0.617575 0.901438
vn 0.600196 -0.786489 0.145598
vt 0.950908 0.901438
vn 0.566228 -0.378032 0.732446
vt -0.201328 0.42629
vn 0.911835 0.144946 0.384119
vt -0.230931 0.278277
vn 0.390193 0.907186 -0.157361
vt 0.132005 0.42629
vn 0.224201 0.972618 -0.061224
vt 0.0518018 0.278277
vn -0.947186 0.268665 0.175091
vt 0.465339 0.42629
vn -0.114196 0.974498 -0.193167
vt 0.434048 0.278277
vn 0.566228 -0.378032 0.732446
vt 0.798672 0.42629
vn 0.911835 0.144946 0.384119
vt 0.769069 0.278277
vn 0.511866 -0.551818 0.6584
vt -0.140567 0.732075
vn 0.41787 0.861938 -0.287138
vt 0.192766 0.728087
vn -0.997269 0.0363324 0.0643031
vt 0.5261 0.736381
vn 0.511866 -0.551818 0.6584
vt 0.859433 0.732075
vn 0.505887 -0.450988 0.735315
vt -0.140567 0.749115
vn 0.415503 0.893745 -0.169046
vt 0.192766 0.745524
vn -0.987722 0.0890767 0.128338
vt 0.5261 0.753002
vn 0.505887 -0.450988 0.735315
vt 0.859433 0.749115
vn 0.396598 -0.224984 0.889996
vt -0.354069 -0.213907
vn 0.242551 -0.280275 0.928771
vt -0.31042 -0.43215
vn -0.524779 0.845392 0.0995975
vt -0.0207351 -0.213907
vn -0.656068 0.725913 0.206456
vt 0.0189797 -0.43215
vn -0.631573 -0.734463 -0.248354
vt 0.312598 -0.213907
vn -0.649092 -0.732171 -0.20641
vt 0.35372 -0.43215
vn 0.396598 -0.224984 0.889996
vt 0.645931 -0.213907
vn 0.242551 -0.280275 0.928771
vt 0.68958 -0.43215
vn 0.0142296 0.964365 0.264191
vt -0.150267 0.433753
vn 0.0142296 0.964365 0.264191
vt 0.183066 0.433753
vn 0.0142296 0.964365 0.264191
vt 0.516399 0.433753
vn -0.469779 -0.768964 0.433593
vt 0.5 1
vn 0.0344017 -0.501908 0.864236
vt 0.5 0.5
vn -0.937954 0.0696709 0.339687
vt 1 0.5
vn 0.263469 -0.632928 0.728002
vt 0 0.5
vn 0.289952 0.181582 0.939657
vt 0.5 0
vn 0.414855 0.896461 -0.155736
vt 0.25 0.933013
vn -0.499275 0.866262 -0.0177645
vt 0.5 0.5
vn 0.504716 -0.439305 0.74315
vt 1 0.5
vn -0.986234 0.0949055 0.135406
vt 0.25 0.0669873
g TreeTrunk2
usemtl Default
s 1

f 1/1/1 2/2/2 3/3/3 
f 4/4/4 3/3/3 2/2/2 
f 3/3/3 4/4/4 5/5/5 
f 6/6/6 5/5/5 4/4/4 
f 5/5/5 6/6/6 7/7/7 
f 8/8/8 7/7/7 6/6/6 
f 9/9/9 7/7/7 8/8/8 
f 7/7/7 9/9/9 10/10/10 
f 11/11/11 10/10/10 9/9/9 
f 10/10/10 11/11/11 1/12/12 
f 2/13/13 1/12/12 11/11/11 
f 12/14/14 1/1/1 13/15/15 
f 3/3/3 13/15/15 1/1/1 
f 13/15/15 3/3/3 14/16/16 
f 5/5/5 14/16/16 3/3/3 
f 14/16/16 5/5/5 15/17/17 
f 7/7/7 15/17/17 5/5/5 
f 15/17/17 7/7/7 16/18/18 
f 10/10/10 16/18/18 7/7/7 
f 16/18/18 10/10/10 12/19/19 
f 1/12/12 12/19/19 10/10/10 
f 17/20/20 12/14/14 18/21/21 
f 13/15/15 18/21/21 12/14/14 
f 18/21/21 13/15/15 19/22/22 
f 14/16/16 19/22/22 13/15/15 
f 15/17/17 19/22/22 14/16/16 
f 19/22/22 15/17/17 20/23/23 
f 16/18/18 20/23/23 15/17/17 
f 20/23/23 16/18/18 17/24/24 
f 12/19/19 17/24/24 16/18/18 
f 21/25/25 17/20/20 22/26/26 
f 18/21/21 22/26/26 17/20/20 
f 22/26/26 18/21/21 23/27/27 
f 19/22/22 23/27/27 18/21/21 
f 23/27/27 19/22/22 24/28/28 
f 20/23/23 24/28/28 19/22/22 
f 24/28/28 20/23/23 21/29/29 
f 17/24/24 21/29/29 20/23/23 
f 25/30/30 21/25/25 26/31/31 
f 22/26/26 26/31/31 21/25/25 
f 26/31/31 22/26/26 27/32/32 
f 23/27/27 27/32/32 22/26/26 
f 27/32/32 23/27/27 28/33/33 
f 24/28/28 28/33/33 23/27/27 
f 28/33/33 24/28/28 25/34/34 
f 21/29/29 25/34/34 24/28/28 
f 29/35/35 30/36/36 31/37/37 
f 32/38/38 31/37/37 30/36/36 
f 31/37/37 32/38/38 33/39/39 
f 34/40/40 33/39/39 32/38/38 
f 33/39/39 34/40/40 29/41/41 
f 30/42/42 29/41/41 34/40/40 
f 35/43/43 29/35/35 36/44/44 
f 31/37/37 36/44/44 29/35/35 
f 36/44/44 31/37/37 37/45/45 
f 33/39/39 37/45/45 31/37/37 
f 37/45/45 33/39/39 35/46/46 
f 29/41/41 35/46/46 33/39/39 
f 38/47/47 35/43/43 39/48/48 
f 36/44/44 39/48/48 35/43/43 
f 39/48/48 36/44/44 40/49/49 
f 37/45/45 40/49/49 36/44/44 
f 40/49/49 37/45/45 38/50/50 
f 35/46/46 38/50/50 37/45/45 
f 39/48/48 41/51/51 38/47/47 
f 40/49/49 41/52/52 39/48/48 
f 38/50/50 41/53/53 40/49/49 
f 42/54/54 43/55/55 44/56/56 
f 45/57/57 44/56/56 43/55/55 
f 44/56/56 45/57/57 46/58/58 
f 47/59/59 46/58/58 45/57/57 
f 46/58/58 47/59/59 48/60/60 
f 49/61/61 48/60/60 47/59/59 
f 48/60/60 49/61/61 42/62/62 
f 43/63/63 42/62/62 49/61/61 
f 50/64/64 42/54/54 51/65/65 
f 44/56/56 51/65/65 42/54/54 
f 51/65/65 44/56/56 52/66/66 
f 46/58/58 52/66/66 44/56/56 
f 52/66/66 46/58/58 53/67/67 
f 48/60/60 53/67/67 46/58/58 
f 53/67/67 48/60/60 50/68/68 
f 42/62/62 50/68/68 48/60/60 
f 54/69/69 50/64/64 55/70/70 
f 51/65/65 55/70/70 50/64/64 
f 55/70/70 51/65/65 56/71/71 
f 52/66/66 56/71/71 51/65/65 
f 56/71/71 52/66/66 57/72/72 
f 53/67/67 57/72/72 52/66/66 
f 57/72/72 53/67/67 54/73/73 
f 50/68/68 54/73/73 53/67/67 
f 58/74/74 59/75/75 60/76/76 
f 61/77/77 60/76/76 59/75/75 
f 60/76/76 61/77/77 62/78/78 
f 63/79/79 62/78/78 61/77/77 
f 62/78/78 63/79/79 64/80/80 
f 65/81/81 64/80/80 63/79/79 
f 64/80/80 65/81/81 58/82/82 
f 59/83/83 58/82/82 65/81/81 
f 60/76/76 66/84/84 58/74/74 
f 62/78/78 66/85/85 60/76/76 
f 64/80/80 66/85/85 62/78/78 
f 58/82/82 66/86/86 64/80/80 
f 67/87/87 68/88/88 69/89/89 
f 70/90/90 69/89/89 68/88/88 
f 69/89/89 70/90/90 71/91/91 
f 72/92/92 71/91/91 70/90/90 
f 71/91/91 72/92/92 73/93/93 
f 74/94/94 73/93/93 72/92/92 
f 73/93/93 74/94/94 67/95/95 
f 68/96/96 67/95/95 74/94/94 
f 69/89/89 75/97/97 67/87/87 
f 71/91/91 75/98/98 69/89/89 
f 73/93/93 75/98/98 71/91/91 
f 67/95/95 75/99/99 73/93/93 
f 76/100/100 77/101/101 78/102/102 
f 79/103/103 78/102/102 77/101/101 
f 78/102/102 79/103/103 80/104/104 
f 81/105/105 80/104/104 79/103/103 
f 80/104/104 81/105/105 76/106/106 
f 77/107/107 76/106/106 81/105/105 
f 82/108/108 76/100/100 83/109/109 
f 78/102/102 83/109/109 76/100/100 
f 83/109/109 78/102/102 84/110/110 
f 80/104/104 84/110/110 78/102/102 
f 84/110/110 80/104/104 82/111/111 
f 76/106/106 82/111/111 80/104/104 
f 85/112/112 82/108/108 86/113/113 
f 83/109/109 86/113/113 82/108/108 
f 86/113/113 83/109/109 87/114/114 
f 84/110/110 87/114/114 83/109/109 
f 87/114/114 84/110/110 85/115/115 
f 82/111/111 85/115/115 84/110/110 
f 86/113/113 88/116/116 85/112/112 
f 87/114/114 88/117/117 86/113/113 
f 85/115/115 88/118/118 87/114/114 
f 89/119/119 90/120/120 91/121/121 
f 92/122/122 91/121/121 90/120/120 
f 91/121/121 92/122/122 93/123/123 
f 94/124/124 93/123/123 92/122/122 
f 93/123/123 94/124/124 89/125/125 
f 90/126/126 89/125/125 94/124/124 
f 95/127/127 89/119/119 96/128/128 
f 91/121/121 96/128/128 89/119/119 
f 96/128/128 91/121/121 97/129/129 
f 93/123/123 97/129/129 91/121/121 
f 97/129/129 93/123/123 95/130/130 
f 89/125/125 95/130/130 93/123/123 
f 98/131/131 95/127/127 99/132/132 
f 96/128/128 99/132/132 95/127/127 
f 99/132/132 96/128/128 100/133/133 
f 97/129/129 100/133/133 96/128/128 
f 100/133/133 97/129/129 98/134/134 
f 95/130/130 98/134/134 97/129/129 
f 101/135/135 102/136/136 103/137/137 
f 104/138/138 103/137/137 102/136/136 
f 103/137/137 104/138/138 105/139/139 
f 106/140/140 105/139/139 104/138/138 
f 105/139/139 106/140/140 101/141/141 
f 102/142/142 101/141/141 106/140/140 
f 103/137/137 107/143/143 101/135/135 
f 105/139/139 107/144/144 103/137/137 
f 101/141/141 107/145/145 105/139/139 
f 108/146/146 109/147/147 110/148/148 
f 111/149/149 109/147/147 108/146/146 
f 112/150/150 109/147/147 111/149/149 
f 110/148/148 109/147/147 112/150/150 
f 113/151/151 114/152/152 115/153/153 
f 116/154/154 114/152/152 113/151/151 
f 115/153/153 114/152/152 116/154/154 



